<svg height="64" preserveAspectRatio="none" viewBox="0 0 64 64" width="64" xmlns="http://www.w3.org/2000/svg" xmlns:xlink="http://www.w3.org/1999/xlink"><linearGradient id="a" gradientUnits="userSpaceOnUse" x1="27.279785" x2="44.493568" y1="25.264648" y2="74.938072"><stop offset="0" stop-color="#fff1bf"/><stop offset=".1983559" stop-color="#ffe9b2"/><stop offset=".566525" stop-color="#ffd38f"/><stop offset="1" stop-color="#ffb55f"/></linearGradient><linearGradient id="b"><stop offset="0" stop-color="#d23a18"/><stop offset=".2649619" stop-color="#da4e1c"/><stop offset=".8068733" stop-color="#ed8328"/><stop offset=".89697" stop-color="#f18c2a"/><stop offset=".9146296" stop-color="#f29537"/><stop offset=".9474026" stop-color="#f5ad5a"/><stop offset=".9913981" stop-color="#f9d391"/><stop offset="1" stop-color="#fadb9d"/></linearGradient><linearGradient id="c" gradientUnits="userSpaceOnUse" x1="37.896484" x2="34.063461" xlink:href="#b" y1="-5.667969" y2="15.165543"/><linearGradient id="d" gradientUnits="userSpaceOnUse" x1="35.643555" x2="59.560532" xlink:href="#b" y1="6.294922" y2="1.794912"/><path d="m59.9140625 31.9951172c5.2558594 29.3837891-6.1865234 27.7451172-28.2299805 27.7675781-18.5625.0205078-33.3339844-1.1259766-27.6210938-26.0078125 5.5800782-24.305664 9.0585938-29.5273437 27.6210938-29.5273437 20.1567383 0 23.784668 2.915039 28.2299805 27.7675781z" fill="url(#a)"/><path d="m19.9902344 6.3378906c-7.109375 2.1606446-9.5878906 4.9956055-4.0390625 5.6621094s14.0488281-2.2729492 18.0488281-1.0532227 2.4082031 4.182129 6.3330078 4.0532227 3.7958984-2.9873047 7.4833984.0039063 7.40625 5.6704102 8.2949219 0-15.296875-14.994629-36.1210937-8.6660157z" fill="url(#c)"/><path d="m18.4052734 6.2685547s17.9560547 1.8095703 30.5673828 1.0205078c.0000001 0-11.5791015-6.3354492-30.5673828-1.0205078z" fill="url(#d)"/><path d="m34.0449219 7.8945313c-5.862793 0-14.019043-.9697266-14.1010742-.9794922-.2226563-.0268555-.3813477-.2290039-.3549805-.4516602.0268555-.2226563.2280273-.4223633.4516602-.3959961.0815429.0097656 8.1904296.9326172 14.0043945.9326172h.0390625c.2246094 0 .40625.2226563.40625.4467773 0 .237793-.2089844.447754-.4453125.447754z" fill="#ffbc80"/><path d="m39.6357422 7.8955078c-.8427734 0-1.3945313-.0092773-1.3945313-.0092773-.2236328-.003418-.4033203-.2255859-.3994141-.449707.0039063-.2216797.1845704-.4365235.4062501-.4365235h.0068359 2.8173828.0048828c.2216797 0 .4033203.2158203.40625.4379883.0029297.2246094-.1767578.4272461-.4013672.4296875-.5332031.0073242-1.0263671.027832-1.446289.027832z" fill="#ffbc80"/><g fill="#fff"><path d="m16.7685547 10.2109375c1.5175781-1.1435547 4.5283203-.4262695 1.9765625 3.015625s-7.0439453.8046875-1.9765625-3.015625z"/><path d="m14.9853516 16.7578125c1.2050781.0419922-.1513672 3.1103516-1.1513672 2.6762695s-1.0292969-2.7519531 1.1513672-2.6762695z"/><path d="m41.1572266 55.6376953c-1.3896485-1.4648437 6.9599609.1591797 10.0927734-2.2314453 3.5839844-2.7353516 6.1298828-4.3105469 5.6289063-1.4667969-.5712891 3.2431641-13.7041016 5.8271485-15.7216797 3.6982422z" opacity=".35"/></g><path d="m37.6357422 60.9921875-5.9501953-.0107422-.4541016.0009766c-11.4873047 0-21.4038086-.5117188-26.4135742-6.8027344-3.4970703-4.390625-4.1328125-11.1611328-1.9428711-20.6972656 5.5800781-24.3066406 9.1391602-30.4746094 28.809082-30.4746094 21.105957 0 24.956543 3.7646484 29.4301758 28.7724609 2.2011719 12.3085938 1.5869141 19.7050781-1.9941406 23.9833984-4.0625 4.8535157-11.4667969 5.2285157-21.484375 5.2285157zm-5.4716797-2.4492187 5.4716797.0107422c9.3505859 0 16.2304688-.3115234 19.6152344-4.3554688 3.0332031-3.6240234 3.4980469-10.6113281 1.4628906-21.9882813-4.4619141-24.946289-7.8642578-26.7636718-27.0297852-26.7636718-17.2709961 0-20.7294922 3.7392578-26.4331055 28.5810547-2.0126953 8.7666016-1.5302734 14.8613281 1.4741211 18.6337891 4.3325195 5.4404297 13.6616211 5.8828125 24.5063477 5.8828125z" fill="#541715"/><path d="m37.774414 32.069336h11.103516v3h-11.103516z" fill="#330200"/><path d="m13.823242 32.069336h11.102051v3h-11.102051z" fill="#330200"/><path d="m17.644531 48.751953h28.708984v3h-28.708984z" fill="#330200"/></svg>